<svg xmlns="http://www.w3.org/2000/svg" viewBox="0 0 1000 560" font-family="'IBM Plex Mono', ui-monospace, monospace">
  <rect width="1000" height="560" fill="#EDE6D3"/>
  <defs>
    <pattern id="grid8" width="8" height="8" patternUnits="userSpaceOnUse">
      <path d="M 8 0 L 0 0 0 8" fill="none" stroke="rgba(46,42,38,0.07)" stroke-width="0.5"/>
    </pattern>
    <pattern id="grid64" width="64" height="64" patternUnits="userSpaceOnUse">
      <path d="M 64 0 L 0 0 0 64" fill="none" stroke="rgba(46,42,38,0.14)" stroke-width="0.75"/>
    </pattern>
  </defs>
  <rect width="1000" height="560" fill="url(#grid8)"/>
  <rect width="1000" height="560" fill="url(#grid64)"/>
  <rect x="20" y="20" width="960" height="520" fill="none" stroke="#2E2A26" stroke-width="1"/>

  <text x="40" y="58" font-size="18" font-weight="600" fill="#2E2A26" letter-spacing="0.06em">CREDMESH · 02-INDUSTRIAL-THROUGHPUT — MOOD SHEET 02 / TYPE + GRID</text>
  <text x="40" y="80" font-size="10" fill="#6B635A" letter-spacing="0.12em">IBM PLEX MONO ONLY · ENGINEERING VELLUM 8PX CROSSHATCH UNDER 64PX BOLD GRID · TABULAR FIGURES, ALWAYS</text>

  <!-- type ladder -->
  <g transform="translate(40,130)" fill="#2E2A26">
    <text font-size="48" font-weight="600" letter-spacing="0.04em">CREDMESH</text>
    <text y="58" font-size="22" font-weight="500" letter-spacing="0.06em">PROCESS CONTROL · PANEL CM-001</text>
    <text y="92" font-size="14" letter-spacing="0.08em" fill="#6B635A">POOL-USDC-A · ON-CHAIN CREDIT MANIFOLD · SOLANA-MAINNET-BETA</text>
    <text y="116" font-size="11" letter-spacing="0.14em" fill="#6B635A">DRAWING SHEET CM-001-A · CONFORMS TO ISA S5.1 · VESSEL TAG V-USDC-1</text>
  </g>

  <!-- mechanical counter sample -->
  <g transform="translate(40,290)">
    <text x="0" y="-12" font-size="10" fill="#6B635A" letter-spacing="0.12em">COUNTER · TVL READOUT</text>
    <g>
      <rect x="0" y="0" width="380" height="56" fill="#15110D" stroke="#2E2A26"/>
      <line x1="34"  y1="0" x2="34"  y2="56" stroke="#2a231b"/>
      <line x1="68"  y1="0" x2="68"  y2="56" stroke="#2a231b"/>
      <line x1="102" y1="0" x2="102" y2="56" stroke="#2a231b"/>
      <line x1="136" y1="0" x2="136" y2="56" stroke="#2a231b"/>
      <line x1="170" y1="0" x2="170" y2="56" stroke="#2a231b"/>
      <line x1="204" y1="0" x2="204" y2="56" stroke="#2a231b"/>
      <line x1="238" y1="0" x2="238" y2="56" stroke="#2a231b"/>
      <line x1="272" y1="0" x2="272" y2="56" stroke="#2a231b"/>
      <line x1="306" y1="0" x2="306" y2="56" stroke="#2a231b"/>
      <text x="190" y="40" text-anchor="middle" font-size="32" font-weight="600" fill="#E8C547" letter-spacing="0.12em">04·287·193.42</text>
      <rect x="306" y="0" width="74" height="56" fill="#15110D" stroke="#2a231b"/>
      <text x="343" y="36" text-anchor="middle" font-size="14" fill="#B8965A" letter-spacing="0.16em">USDC</text>
    </g>
  </g>

  <!-- maintenance log fragment -->
  <g transform="translate(500,290)" fill="#2E2A26">
    <text x="0" y="-12" font-size="10" fill="#6B635A" letter-spacing="0.12em">VOICE · MAINTENANCE LOG, NOT MARKETING COPY</text>
    <rect x="0" y="0" width="440" height="170" fill="#F5EFDD" stroke="#2E2A26" stroke-width="0.75"/>
    <text x="14" y="22"  font-size="11" font-weight="600" letter-spacing="0.08em">2026-05-03  14:22:08 UTC  ·  TICK 11842</text>
    <text x="14" y="44"  font-size="11" letter-spacing="0.04em">VALVE  OPEN.  FLOW NOMINAL.  NO ALARMS LATCHED.</text>
    <text x="14" y="64"  font-size="11" letter-spacing="0.04em">FEED 4.21 MPa  ·  OUTLET 3.94 MPa  ·  ΔP 0.27 MPa</text>
    <text x="14" y="84"  font-size="11" letter-spacing="0.04em">UTIL 67.4%  ·  SP 80%  ·  HI-HI 95% NOT REACHED</text>
    <text x="14" y="104" font-size="11" letter-spacing="0.04em">LOG-A: ADV #11842 OPENED · 12,500.00 USDC · AGT-014</text>
    <text x="14" y="124" font-size="11" letter-spacing="0.04em">RIC-301: AGT-014 SCORE +12 → 924 (window n=412)</text>
    <text x="14" y="148" font-size="10" fill="#6B635A" letter-spacing="0.08em">NEXT INSPECTION 2026-05-04 06:00 UTC · OPERATOR D.AUDIT-STAGING</text>
  </g>

  <!-- footer -->
  <text x="40" y="525" font-size="9" fill="#6B635A" letter-spacing="0.12em">REFS · IBM PLEX MONO BY MIKE ABBINK 2017 · NASA TYPOGRAPHY OF FLIGHT-DECK DOC NCC2-327 1992 · TUFTE 2006 ON SPARKLINES + STRIP CHARTS</text>
</svg>
